<?xml version="1.0" encoding="UTF-8"?>
<svg id="Layer_1" data-name="Layer 1" xmlns="http://www.w3.org/2000/svg" viewBox="0 0 2340 1560">
  <defs>
    <style>
      .cls-1 {
        fill: #595c6d;
      }

      .cls-1, .cls-2, .cls-3 {
        stroke-width: 0px;
      }

      .cls-2 {
        fill: #d7ae3c;
      }

      .cls-3 {
        fill: #182f39;
      }
    </style>
  </defs>
  <path class="cls-2" d="m1170,851.18c-127.7,0-243.67,28-329.76,65.04h659.52c-86.09-37.04-202.06-65.04-329.76-65.04Z"/>
  <path class="cls-1" d="m1170,856.06c-127.7,0-243.67,22.75-329.76,59.79h659.52c-86.09-37.04-202.06-59.79-329.76-59.79Z"/>
  <path class="cls-2" d="m993,845.15l6.01-218.92h-6.02c-20.58.01-37.27,16.71-37.27,37.3v188.91c12.21-2.59,24.66-5.15,37.28-7.29Z"/>
  <path class="cls-2" d="m1073.56,834.48l6.59-308.86c-24.49,1.69-50.44,22.04-50.44,46.97v266.88c14.43-1.85,29.06-3.75,43.85-5Z"/>
  <path class="cls-2" d="m1163.12,830.12c6.24,0,12.46-.3,18.68-.19l6.89-411.43c-32.09,0-64.99,26.01-64.99,58.11v354.55c13.07-.48,26.21-1.04,39.43-1.04Z"/>
  <path class="cls-2" d="m1286.53,836.52l7.4-311.07c-26.03,0-54.53,20.54-54.53,46.57v260.3c15.9,1.14,31.62,2.37,47.13,4.19Z"/>
  <path class="cls-2" d="m1378.35,851.21v-224.98c-20.58,0-47.26,16.69-47.26,37.29v178.84c12.62,2.13,35.06,6.26,47.26,8.85Z"/>
  <path class="cls-3" d="m999.02,844.11v-217.88h0c-20.58,0-37.27,16.69-37.27,37.29v187.67c12.21-2.59,24.66-4.93,37.28-7.07Z"/>
  <path class="cls-3" d="m1080.15,833.9v-308.28c-24.49,1.69-43.85,22.04-43.85,46.97v265.97c14.43-1.85,29.06-3.42,43.85-4.66Z"/>
  <path class="cls-3" d="m1170,830.12c6.24,0,12.46.09,18.68.21v-411.82c-32.09,0-58.11,26.01-58.11,58.11v354.28c13.07-.48,26.21-.77,39.43-.77Z"/>
  <path class="cls-3" d="m1293.93,837.37v-311.91c-26.03,0-47.13,21.1-47.13,47.14v260.3c15.9,1.14,31.62,2.65,47.13,4.47Z"/>
  <path class="cls-3" d="m1378.35,851.21v-224.98c-20.58,0-37.28,16.69-37.28,37.29v180.61c12.62,2.13,25.07,4.48,37.28,7.08Z"/>
  <path class="cls-3" d="m1170,861.43c-127.7,0-243.67,17.75-329.76,54.79h659.52c-86.09-37.04-202.06-54.79-329.76-54.79Z"/>
</svg>