<?xml version="1.0" encoding="UTF-8"?>
<svg id="Calque_1" data-name="Calque 1" xmlns="http://www.w3.org/2000/svg" viewBox="0 0 65 40">
  <defs>
    <style>
      .cls-1 {
        fill: #595c6d;
      }

      .cls-1, .cls-2, .cls-3 {
        stroke-width: 0px;
      }

      .cls-2 {
        fill: #182f39;
      }

      .cls-3 {
        fill: #d6ad3c;
      }
    </style>
  </defs>
  <path class="cls-3" d="m32.56,34.69c-10.15,0-19.37,2.23-26.21,5.17h52.43c-6.84-2.94-16.06-5.17-26.21-5.17Z"/>
  <path class="cls-1" d="m32.56,35.08c-10.15,0-19.37,1.81-26.21,4.75h52.43c-6.84-2.94-16.06-4.75-26.21-4.75Z"/>
  <path class="cls-3" d="m18.49,34.21l.48-17.4h-.48c-1.64,0-2.96,1.33-2.96,2.97v15.02c.97-.21,1.96-.41,2.96-.58Z"/>
  <path class="cls-3" d="m24.9,33.36l.52-24.55c-1.95.13-4.01,1.75-4.01,3.73v21.22c1.15-.15,2.31-.3,3.49-.4Z"/>
  <path class="cls-3" d="m32.02,33.01c.5,0,.99-.02,1.48-.01L34.05.29c-2.55,0-5.17,2.07-5.17,4.62v28.19c1.04-.04,2.08-.08,3.13-.08Z"/>
  <path class="cls-3" d="m41.83,33.52l.59-24.73c-2.07,0-4.34,1.63-4.34,3.7v20.69c1.26.09,2.51.19,3.75.33Z"/>
  <path class="cls-3" d="m49.13,34.69v-17.89c-1.64,0-3.76,1.33-3.76,2.96v14.22c1,.17,2.79.5,3.76.7Z"/>
  <path class="cls-2" d="m18.97,34.13v-17.32h0c-1.64,0-2.96,1.33-2.96,2.96v14.92c.97-.21,1.96-.39,2.96-.56Z"/>
  <path class="cls-2" d="m25.42,33.31V8.81c-1.95.13-3.49,1.75-3.49,3.73v21.14c1.15-.15,2.31-.27,3.49-.37Z"/>
  <path class="cls-2" d="m32.56,33.01c.5,0,.99,0,1.48.02V.29c-2.55,0-4.62,2.07-4.62,4.62v28.16c1.04-.04,2.08-.06,3.13-.06Z"/>
  <path class="cls-2" d="m42.42,33.59V8.79c-2.07,0-3.75,1.68-3.75,3.75v20.69c1.26.09,2.51.21,3.75.36Z"/>
  <path class="cls-2" d="m49.13,34.69v-17.89c-1.64,0-2.96,1.33-2.96,2.96v14.36c1,.17,1.99.36,2.96.56Z"/>
  <path class="cls-2" d="m32.56,35.5c-10.15,0-19.37,1.41-26.21,4.36h52.43c-6.84-2.94-16.06-4.36-26.21-4.36Z"/>
</svg>